<svg width="40" height="43" viewBox="0 0 40 43" fill="none" xmlns="http://www.w3.org/2000/svg">
<path d="M29.9054 37.6284C24.7006 37.7867 19.526 38.1522 14.3099 38.216C14.1779 38.2176 12.1717 38.3454 11.9034 38.2255C11.5119 38.0506 12.7172 37.9003 13.1529 37.7706C14.7923 37.2827 17.4308 36.5532 18.9839 36.1405C21.9778 35.3449 24.9987 34.5892 28.0697 33.9133C30.051 33.4773 28.6179 33.4387 27.2059 33.2499C24.3636 32.87 21.4802 32.6288 18.6754 32.1411C18.3698 32.0879 11.1686 31.0151 13.8162 30.1698C16.1818 29.4145 19.6804 28.7912 22.3467 29.0846C27.4607 29.6475 26.6665 33.4145 25.5476 35.6524C24.6693 37.409 23.0819 39.2855 20.7116 40.4716C17.8826 41.8872 16.6994 40.1874 16.9014 38.5572C17.2353 35.8627 19.0178 33.138 20.781 30.7053C23.7774 26.5711 27.7827 22.7862 31.9648 19.0766C32.3764 18.7115 37.2468 14.1708 35.1579 17.9346C33.5683 20.7988 30.657 23.7184 26.2958 25.2795C17.9259 28.2755 17.2712 19.3869 13.5848 16.8447C12.1142 15.8306 10.2395 15.8735 9.48927 17.2143C8.36899 19.2166 11.1422 20.827 13.6234 21.7824C15.4161 22.4726 17.9722 23.2355 20.1717 22.7586C23.0917 22.1254 23.3799 19.6676 23.3494 18.1147C23.3069 15.9475 22.6425 13.7548 22.0845 11.6227C21.955 11.128 21.505 9.40207 21.2284 8.67056C21.0965 8.32189 21.3491 9.38286 21.4366 9.73675C21.8783 11.5236 22.3133 13.2949 22.0074 15.1104C21.8518 16.0338 21.361 17.3929 20.6807 18.2663C20.6576 18.296 19.6806 19.3312 19.6472 18.418C19.5741 16.4195 21.5369 14.2159 23.0563 12.5705C26.2355 9.12762 30.3288 5.70467 35.0345 2.98418C36.0466 2.39907 38.8862 1.00856 37.7264 3.15951C36.0216 6.32095 31.9908 9.68767 27.1288 11.2531C17.7511 14.2725 8.25401 8.07039 2 4.53372" stroke="white" stroke-width="3" stroke-linecap="round"/>
</svg>
